# xmcd
#
# Track frame offsets:
#	150
#	12228
#	25535
#	40037
#	53702
#	69368
#	81583
#	96576
#	109973
#	122024
#	137340
#	150865
#	165197
#	179227
#	193242
#	206250
#	225947
#	239811
#	255953
#	269548
#	280800
#	294227
#	306848
#	319678
#	333977
#
# Disc length: 4705 seconds
#
# Revision: 1
# Processed by: cddbd v1.5.2PL0 Copyright (c) Steve Scherf et al.
# Submitted via: audiograbber 1.83.01
#
DISCID=54125f19
DTITLE=Sampler - Cross The Tracks Essential Pioneer Blues CD 1
DYEAR=1900
DGENRE=Blues
TTITLE0=01 - Robert Johnson - Cross Road Blues
TTITLE1=02 - Mississippi John Hurt - Stack O'Lee
TTITLE2=03 - Lonnie Johnson - Racketeers Blues
TTITLE3=04 - Memphis Minnie - Me And My Chauffeur Blues
TTITLE4=05 - Bessie Smith - Gimme A Pigfoot
TTITLE5=06 - Bertha Chippie Hill - Trouble In Mind
TTITLE6=07 - Blind Willie Johnson - Dark Was The Night
TTITLE7=08 - Son House - Walking Blues
TTITLE8=09 - Bukka White - Parchman Farm Blues
TTITLE9=10 - Big Joe Williams - Baby Please Don't Go
TTITLE10=11 - Lucille Bogan - Baking Powder Blues
TTITLE11=12 - Ma Rainey - Ma Rainey's Black Bottom
TTITLE12=13 - Clara Smith - Gin Mill Blues
TTITLE13=14 - Lead Belly - Midnight Special
TTITLE14=15 - Sonny Terry And Browniw McGhee - Walk On
TTITLE15=16 - Josh White - Free And Equal Blues
TTITLE16=17 - Count Basie Feat. Jimmy Rushing - Blues In The Dark
TTITLE17=18 - Ida Cox - Any Womans Blues
TTITLE18=19 - Blind Lemon Jefferson - Match Box Blues
TTITLE19=20 - Blind Willie McTell - Statesboro Blues
TTITLE20=21 - Blind Blake - Diddie Wa Diddie
TTITLE21=22 - Blind Boy Fuller - Truckin' My Blues Away, #2
TTITLE22=23 - Alberta Hunter - Downhearted Blues
TTITLE23=24 - Dinah Shore With Leonard Joy's Orchestra - Blues In The Night
TTITLE24=25 - Billie Holiday - Billies Blues (I Love My Man)
EXTD=
EXTT0=
EXTT1=
EXTT2=
EXTT3=
EXTT4=
EXTT5=
EXTT6=
EXTT7=
EXTT8=
EXTT9=
EXTT10=
EXTT11=
EXTT12=
EXTT13=
EXTT14=
EXTT15=
EXTT16=
EXTT17=
EXTT18=
EXTT19=
EXTT20=
EXTT21=
EXTT22=
EXTT23=
EXTT24=
PLAYORDER=
